<?xml version="1.0" encoding="UTF-8"?>
<svg id="Layer_1" data-name="Layer 1" xmlns="http://www.w3.org/2000/svg" xmlns:xlink="http://www.w3.org/1999/xlink" viewBox="0 0 500 538.9504">
  <defs>
    <style>
      .cls-1 {
        fill: none;
      }

      .cls-2 {
        fill: #0f594c;
      }

      .cls-3 {
        fill: #4d8c63;
      }

      .cls-4 {
        fill: #8dc499;
      }

      .cls-5 {
        fill: #efdbdd;
      }

      .cls-6 {
        fill: #9e746c;
      }

      .cls-7 {
        clip-path: url(#clippath);
      }
    </style>
    <clipPath id="clippath">
      <circle class="cls-1" cx="250" cy="250" r="250"/>
    </clipPath>
  </defs>
  <circle class="cls-5" cx="250" cy="250" r="250"/>
  <g class="cls-7">
    <g>
      <g>
        <path class="cls-3" d="M235.4565,159.7204c15.2825,35.6219,5.1085,61.0941-15.2267,112.0371-50.9315-20.3494-76.4166-30.5221-91.7133-66.1554-15.3124-35.6576-12.7804-78.9472,15.211-112.0614,43.2896,2.5321,76.4152,30.5092,91.729,66.1797Z"/>
        <path class="cls-4" d="M128.5811,205.9268c15.0704,35.1122,40.1427,45.5512,89.592,65.3096l-.0071-.0642c-4.462-32.2875-50.4801-135.858-74.9042-176.5723-27.429,33.0263-29.8864,75.9306-14.6807,111.3269Z"/>
      </g>
      <g>
        <path class="cls-3" d="M387.6355,182.7641c-26.3411,21.6866-50.3185,19.3686-98.3066,14.7561,4.6125-47.9881,6.9354-71.9939,33.2159-93.7028,26.325-21.6953,63.4878-30.2385,98.2905-14.7648,8.5556,37.159-6.9193,72.0026-33.1998,93.7114Z"/>
        <path class="cls-4" d="M291.9712,197.7143c46.2351,4.4378,69.9485,6.2819,95.7947-14.986,26.1505-21.6023,41.5613-56.2106,33.2893-93.1445-45.7092,24.0152-113.1612,90.0356-129.084,108.1305Z"/>
      </g>
      <g>
        <path class="cls-3" d="M141.5337,283.2851c19.4938,19.062,19.7054,38.3599,20.14,76.9414-38.5701.4203-57.8666.6448-77.3732-18.4158-19.5109-19.0992-29.4687-47.9216-20.14-76.9414,28.8196-9.9835,57.8651-.6576,77.3732,18.4158Z"/>
        <path class="cls-4" d="M63.6976,266.5255c-8.4403,28.467,1.3983,56.5615,20.5442,75.2977,19.5209,19.072,38.816,18.8348,77.3732,18.4158-15.5455-23.475-72.1176-75.1242-97.9174-93.7135Z"/>
      </g>
      <g>
        <path class="cls-3" d="M300.0982,360.0833c-35.2068-1.3695-52.1475-19.6883-86.0234-56.2614,36.601-33.8523,54.9069-50.7919,90.1255-49.4364,35.2594,1.3781,69.775,20.3516,86.0234,56.2614-18.9574,34.5532-54.8833,50.764-90.1255,49.4364Z"/>
        <path class="cls-2" d="M304.197,254.368c-33.3447-1.2777-51.7091,14.0197-84.6073,44.3614,22.6005-.5147,113.959.2,170.3891,12.2702.0666-.1352.175-.235.2416-.3702-16.2484-35.9098-50.764-54.8833-86.0234-56.2614Z"/>
      </g>
      <g>
        <path class="cls-3" d="M228.6257,479.1138c-33.0166-1.0153-49.0549-18.0037-81.0945-52.0211,34.0179-32.0266,51.0198-48.0526,84.0472-47.0895,33.0414.9883,65.5812,18.4783,81.0939,52.0082-17.4899,32.5399-50.9935,48.0644-84.0466,47.1024Z"/>
        <path class="cls-2" d="M312.656,431.8977c-15.5352-33.4513-48.0223-50.9176-81.0379-51.9071-32.3795-.9389-49.4438,14.5335-82.1311,45.3005,35.5614-5.4574,101.5957-15.5736,163.169,6.6066Z"/>
      </g>
      <path class="cls-6" d="M116.7351,538.9405c-7.1663-.3611-17.5748-8.5633-17.2928-15.9837,1.6929-45.1791,17.7536-155.6514,186.6348-333.2203,5.0073-5.2876,10.863-9.5191,16.1549-4.455,5.328,5.0601.6773,11.9253-4.1661,17.3717-144.3305,162.0221-158.5882,279.3443-160.1521,321.5914-.294,7.4217-14.0044,15.0182-21.1786,14.6959Z"/>
    </g>
  </g>
</svg>